<svg xmlns="http://www.w3.org/2000/svg" width="32" height="32" viewBox="0 0 32 32"><path d="M11.26 7.49c0-.36-.35-.45-.35-.45-1.55-.49-2.49-1.43-2.98-2.99 0 0-.06-.34-.45-.34-.38 0-.44.34-.44.34-.49 1.56-1.42 2.5-2.98 2.99 0 0-.35.09-.35.45s.35.45.35.45c1.56.49 2.49 1.43 2.98 2.99 0 0 .06.34.45.34.38-.01.45-.34.45-.34.49-1.56 1.42-2.5 2.98-2.99 0 .01.34-.08.34-.45 0 .01 0 .01 0 0zm17.06 8.46c0-.53-.44-.88-.94-1 0 0-3.96-1.34-5.43-2.25-.98-.48-1.91-1.45-2.5-2.41v.01c-.89-1.16-2.39-5.73-2.39-5.73-.18-.59-.52-.93-1.05-.94v.04L16 3.63c-.53 0-.88.44-1 .94 0 0-1.34 3.96-2.25 5.43-.48.98-1.45 1.91-2.41 2.5h.01c-1.16.89-5.73 2.39-5.73 2.39-.59.18-.93.52-.94 1.05l.06.01h-.06c0 .53.44.88.94 1 0 0 3.96 1.34 5.43 2.25.98.48 1.91 1.45 2.5 2.41v-.01c.89 1.16 2.39 5.73 2.39 5.73.18.59.52.93 1.05.94l.01-.07.01.07c.53 0 .88-.44 1-.94 0 0 1.34-3.96 2.25-5.43.48-.98 1.45-1.91 2.41-2.5h-.01c1.16-.89 5.73-2.39 5.73-2.39.59-.18.93-.52.94-1.05l-.08-.01h.07zm-.26 8.99c-.47-.24-.92-.58-1.31-.97s-.73-.85-.97-1.31c0 0-.11-.24-.39-.24s-.39.24-.39.24c-.24.47-.58.92-.97 1.31s-.85.73-1.31.97c0 0-.24.11-.24.39s.24.39.24.39c.47.24.92.58 1.31.97s.73.85.97 1.31c0 0 .11.24.39.24s.39-.24.39-.24c.24-.47.58-.92.97-1.31s.85-.73 1.31-.97c0 0 .24-.11.24-.39s-.24-.39-.24-.39z" fill="#fff"></path></svg>